<svg xmlns="http://www.w3.org/2000/svg" xmlns:xlink="http://www.w3.org/1999/xlink" version="1.1" x="0px" y="0px" viewBox="0 0 100 100" style="enable-background:new 0 0 100 100;" xml:space="preserve"><g><circle cx="61.17" cy="50.15" r="2.68"/><circle cx="37.03" cy="50.15" r="2.68"/><path d="M92.54,22.06L77.5,19.73l-2.43-0.5c-0.43-0.09-0.87-0.11-1.29-0.08l-0.03-0.01l0.01,0.01c-0.87,0.07-1.71,0.38-2.43,0.91   l-13,9.68c-1.71-0.58-3.96-0.72-6.05-0.74c-0.25,2.47-1.17,12.62,0.06,16.65c1.41,4.6,7.65,12.93,8.83,20.57   c0.35,2.26,0.21,5-0.15,7.75c-1.18,1.32-3.26,3.14-5.69,3.15c-0.01,0-0.01,0-0.02,0c-2.19,0-3.27-0.74-4.32-1.46   c-0.82-0.56-1.67-1.14-2.89-1.14c-1.22,0-2.12,0.53-3.06,1.09c-1.18,0.7-2.51,1.5-4.96,1.5c-0.01,0-0.02,0-0.03,0   c-1.51,0-2.86-0.78-4.02-2.31c-0.31-0.41-0.56-0.82-0.76-1.18c-0.06-2.57,0.03-5.11,0.39-7.12c1.23-6.84,8.49-14,10.5-21.25   c1.73-6.21,1.18-14.09,0.99-16.2c-1.76-0.01-4.02,0-6.18,0.26L28.88,19.25c-0.68-0.57-1.51-0.93-2.37-1.04l0.01-0.01l-0.03,0   c-0.43-0.06-0.86-0.05-1.3,0.01l-2.45,0.36l-15.14,1.5c-1.23,0.12-2.16,1.18-2.13,2.41l0.37,13.86l2.51-2.2l1.97,9.23   c0.34,1.61,1.28,3.04,2.61,4.01l2.36,1.71c0.84,0.61,1.81,0.95,2.79,1.03c-0.85,1.75-1.7,3.5-2.55,5.25   c1.28,0.3,2.56,0.61,3.85,0.91c-1.69,2.68-3.37,5.35-5.06,8.03c-0.07,0.11-0.12,0.24-0.13,0.38c-0.02,0.63,0.87,0.68,1.47,0.82   c0.93,0.22,1.56,1.16,1.72,2.11c0.16,0.95-0.06,1.91-0.27,2.85c-0.43,1.9-0.87,3.79-1.3,5.69c-0.09,0.41-0.17,0.89,0.1,1.22   c0.14,0.17,0.36,0.27,0.58,0.33c0.99,0.3,2.06,0.11,3.07-0.09c0.52-0.1,1.03-0.19,1.55-0.29c1.99-0.38,4.05-0.03,5.83,0.95   c2.51,1.38,5.52,2.52,8.89,3.33c-0.16-1.58-0.33-3.45-0.43-5.39c1.33,1.5,2.94,2.3,4.68,2.3c0.01,0,0.02,0,0.03,0   c2.84,0,4.42-0.94,5.68-1.7c0.84-0.5,1.5-0.89,2.33-0.89c0,0,0,0,0.01,0c0.79,0,1.34,0.38,2.1,0.9c1.11,0.76,2.49,1.7,5.12,1.7   c0.01,0,0.02,0,0.02,0c2.12,0,3.95-1.07,5.32-2.23c-0.35,1.97-0.78,3.87-1.19,5.52c3.59-0.79,6.81-1.94,9.49-3.37   c1.84-0.98,3.95-1.33,6-0.95c0.21,0.04,0.42,0.08,0.62,0.12c1.02,0.19,2.08,0.38,3.07,0.09c0.22-0.06,0.43-0.16,0.58-0.33   c0.27-0.33,0.19-0.81,0.1-1.22c-0.43-1.9-0.87-3.79-1.3-5.69c-0.21-0.94-0.43-1.9-0.27-2.85c0.16-0.95,0.78-1.88,1.72-2.11   c0.6-0.14,1.48-0.2,1.47-0.82c0-0.13-0.05-0.26-0.12-0.38c-1.69-2.68-3.37-5.35-5.06-8.03c1.28-0.3,2.56-0.61,3.85-0.91   c-0.77-1.59-1.55-3.19-2.32-4.78c1.8,1.17,4.15,1.21,6.02,0.02l2.45-1.58c1.39-0.89,2.4-2.27,2.83-3.86l2.47-9.1l2.38,2.33   l1.12-13.82C94.63,23.35,93.76,22.25,92.54,22.06z M33.35,50.15c0-2.03,1.65-3.67,3.67-3.67s3.67,1.65,3.67,3.67   c0,2.03-1.65,3.67-3.67,3.67S33.35,52.18,33.35,50.15z M61.17,53.83c-2.03,0-3.67-1.65-3.67-3.67c0-2.03,1.65-3.67,3.67-3.67   c2.03,0,3.67,1.65,3.67,3.67C64.84,52.18,63.19,53.83,61.17,53.83z"/><path d="M42.28,66.96c0,3.12,4.19,5.64,5.73,5.64c1.91,0,5.73-2.53,5.73-5.64c0-3.12-2.57-4.18-5.73-4.18   C44.84,62.79,42.28,63.84,42.28,66.96z"/></g></svg>